<svg width="230" height="130" viewBox="0 0 230 130" fill="none" xmlns="http://www.w3.org/2000/svg">
<g clip-path="url(#clip0_72_5324)">
<rect width="230" height="130" rx="8" fill="url(#paint0_linear_72_5324)"/>
<path d="M126.009 -4C124.139 12.8245 123.742 48.3716 137.108 55.964C153.816 65.4544 169.567 46.5839 186.545 58.449C205.209 71.493 185.915 111.535 206.799 126.827" stroke="url(#paint1_linear_72_5324)" stroke-width="1.50892"/>
<path d="M18.7254 17.0945H22.4674V29.5794C22.4674 30.7335 22.208 31.736 21.6893 32.587C21.1763 33.4379 20.4623 34.0937 19.5472 34.5541C18.6322 35.0146 17.5684 35.2448 16.3561 35.2448C15.2778 35.2448 14.2986 35.0554 13.4185 34.6765C12.5442 34.2918 11.8506 33.709 11.3377 32.9279C10.8247 32.1411 10.5712 31.1531 10.577 29.9641H14.3452C14.3569 30.4362 14.453 30.8413 14.6337 31.1794C14.8203 31.5116 15.0738 31.768 15.3944 31.9487C15.7208 32.1236 16.1055 32.211 16.5484 32.211C17.0147 32.211 17.4081 32.1119 17.7287 31.9138C18.0551 31.7098 18.3028 31.4125 18.4719 31.022C18.6409 30.6315 18.7254 30.1506 18.7254 29.5794V17.0945ZM35.0645 22.2441C34.9945 21.5389 34.6944 20.991 34.164 20.6004C33.6336 20.2099 32.9137 20.0147 32.0045 20.0147C31.3866 20.0147 30.865 20.1021 30.4395 20.277C30.014 20.446 29.6876 20.682 29.4603 20.9851C29.2388 21.2882 29.1281 21.6321 29.1281 22.0168C29.1164 22.3374 29.1834 22.6171 29.3291 22.8561C29.4807 23.0951 29.6876 23.302 29.9499 23.4769C30.2122 23.6459 30.5153 23.7945 30.8592 23.9227C31.203 24.0451 31.5702 24.1501 31.9608 24.2375L33.5695 24.6222C34.3505 24.797 35.0674 25.0302 35.7202 25.3216C36.373 25.613 36.9384 25.9715 37.4163 26.397C37.8943 26.8225 38.2644 27.3237 38.5267 27.9008C38.7948 28.4778 38.9318 29.1393 38.9376 29.8854C38.9318 30.9812 38.652 31.9312 38.0983 32.7356C37.5504 33.5341 36.7577 34.1549 35.7202 34.5978C34.6885 35.035 33.4441 35.2535 31.987 35.2535C30.5415 35.2535 29.2825 35.0321 28.2101 34.5891C27.1434 34.1461 26.3099 33.4904 25.7096 32.6219C25.1151 31.7476 24.8032 30.6664 24.7741 29.3783H28.4374C28.4782 29.9787 28.6501 30.4799 28.9532 30.8821C29.2621 31.2784 29.673 31.5786 30.186 31.7826C30.7047 31.9808 31.2905 32.0799 31.9433 32.0799C32.5844 32.0799 33.1411 31.9866 33.6132 31.8001C34.0911 31.6136 34.4612 31.3542 34.7235 31.022C34.9858 30.6898 35.1169 30.308 35.1169 29.8767C35.1169 29.4745 34.9975 29.1364 34.7585 28.8625C34.5253 28.5885 34.1815 28.3554 33.7268 28.1631C33.278 27.9707 32.7272 27.7959 32.0744 27.6385L30.1248 27.1489C28.6151 26.7817 27.4232 26.2076 26.5489 25.4265C25.6746 24.6455 25.2404 23.5934 25.2462 22.2703C25.2404 21.1862 25.5289 20.2391 26.1118 19.4289C26.7005 18.6187 27.5077 17.9863 28.5335 17.5317C29.5594 17.0771 30.7251 16.8497 32.0307 16.8497C33.3596 16.8497 34.5195 17.0771 35.5104 17.5317C36.5071 17.9863 37.2823 18.6187 37.836 19.4289C38.3897 20.2391 38.6753 21.1775 38.6928 22.2441H35.0645ZM11.5562 65V47.0945H23.6214V50.2158H15.3419V54.4823H23.0007V57.6035H15.3419V61.8788H23.6564V65H11.5562ZM36.0983 52.2441C36.0284 51.5389 35.7282 50.991 35.1978 50.6004C34.6674 50.2099 33.9476 50.0147 33.0383 50.0147C32.4205 50.0147 31.8988 50.1021 31.4733 50.277C31.0479 50.446 30.7215 50.682 30.4941 50.9851C30.2727 51.2882 30.1619 51.6321 30.1619 52.0168C30.1503 52.3374 30.2173 52.6171 30.363 52.8561C30.5145 53.0951 30.7215 53.302 30.9837 53.4769C31.246 53.6459 31.5491 53.7945 31.893 53.9227C32.2369 54.0451 32.6041 54.1501 32.9946 54.2375L34.6033 54.6222C35.3843 54.797 36.1013 55.0302 36.7541 55.3216C37.4069 55.613 37.9722 55.9715 38.4502 56.397C38.9281 56.8225 39.2982 57.3237 39.5605 57.9008C39.8286 58.4778 39.9656 59.1393 39.9714 59.8854C39.9656 60.9812 39.6858 61.9312 39.1321 62.7356C38.5842 63.5341 37.7915 64.1549 36.7541 64.5978C35.7224 65.035 34.478 65.2535 33.0208 65.2535C31.5753 65.2535 30.3164 65.0321 29.2439 64.5891C28.1773 64.1461 27.3438 63.4904 26.7434 62.6219C26.1489 61.7476 25.8371 60.6664 25.8079 59.3783H29.4712C29.512 59.9787 29.684 60.4799 29.9871 60.8821C30.296 61.2784 30.7069 61.5786 31.2198 61.7826C31.7385 61.9808 32.3243 62.0799 32.9771 62.0799C33.6183 62.0799 34.1749 61.9866 34.647 61.8001C35.125 61.6136 35.4951 61.3542 35.7574 61.022C36.0197 60.6898 36.1508 60.308 36.1508 59.8767C36.1508 59.4745 36.0313 59.1364 35.7923 58.8625C35.5592 58.5885 35.2153 58.3554 34.7607 58.1631C34.3119 57.9707 33.7611 57.7959 33.1083 57.6385L31.1586 57.1489C29.649 56.7817 28.457 56.2076 27.5828 55.4265C26.7085 54.6455 26.2742 53.5934 26.2801 52.2703C26.2742 51.1862 26.5628 50.2391 27.1456 49.4289C27.7343 48.6187 28.5416 47.9863 29.5674 47.5317C30.5932 47.0771 31.7589 46.8497 33.0646 46.8497C34.3935 46.8497 35.5534 47.0771 36.5442 47.5317C37.5409 47.9863 38.3161 48.6187 38.8698 49.4289C39.4236 50.2391 39.7092 51.1775 39.7266 52.2441H36.0983ZM49.0386 65.2448C48.1177 65.239 47.2288 65.0845 46.372 64.7814C45.5211 64.4783 44.7575 63.9858 44.0814 63.3039C43.4053 62.6219 42.869 61.7185 42.4727 60.5936C42.0822 59.4687 41.8869 58.0873 41.8869 56.4494C41.8928 54.9457 42.0647 53.6022 42.4028 52.419C42.7466 51.2299 43.2362 50.2216 43.8716 49.3939C44.5127 48.5663 45.2792 47.9368 46.1709 47.5055C47.0627 47.0683 48.0623 46.8497 49.1698 46.8497C50.3646 46.8497 51.4196 47.0829 52.3347 47.5492C53.2498 48.0096 53.9842 48.6362 54.5379 49.4289C55.0974 50.2216 55.4355 51.1104 55.5521 52.0955H51.8189C51.6731 51.4718 51.3671 50.9822 50.9009 50.6267C50.4346 50.2711 49.8575 50.0934 49.1698 50.0934C48.004 50.0934 47.1181 50.6004 46.5119 51.6146C45.9116 52.6288 45.6056 54.0073 45.5939 55.75H45.7163C45.9844 55.2196 46.3458 54.7679 46.8004 54.3949C47.2609 54.016 47.7826 53.7275 48.3654 53.5293C48.9541 53.3253 49.5748 53.2233 50.2276 53.2233C51.2885 53.2233 52.2327 53.4739 53.0603 53.9752C53.888 54.4706 54.5408 55.1526 55.0188 56.021C55.4967 56.8895 55.7357 57.8833 55.7357 59.0024C55.7357 60.2147 55.453 61.293 54.8876 62.2372C54.3281 63.1815 53.5441 63.9217 52.5358 64.4579C51.5333 64.9883 50.3675 65.2506 49.0386 65.2448ZM49.0211 62.2722C49.604 62.2722 50.1256 62.1323 50.5861 61.8526C51.0466 61.5728 51.4079 61.1939 51.6702 60.716C51.9325 60.238 52.0637 59.7018 52.0637 59.1073C52.0637 58.5128 51.9325 57.9795 51.6702 57.5073C51.4138 57.0352 51.0582 56.6593 50.6036 56.3795C50.149 56.0997 49.6302 55.9598 49.0474 55.9598C48.6102 55.9598 48.2051 56.0414 47.8321 56.2046C47.4649 56.3678 47.1414 56.5952 46.8616 56.8866C46.5877 57.178 46.372 57.5161 46.2147 57.9008C46.0573 58.2796 45.9786 58.6847 45.9786 59.116C45.9786 59.6931 46.1097 60.2205 46.372 60.6985C46.6401 61.1764 47.0015 61.5582 47.4562 61.8438C47.9166 62.1294 48.4383 62.2722 49.0211 62.2722Z" fill="white"/>
<path d="M13.9437 89H11.1114V79.8218H14.0692C14.9596 79.8218 15.7214 80.0056 16.3548 80.373C16.9882 80.7375 17.4737 81.2619 17.8113 81.9461C18.1489 82.6273 18.3177 83.4429 18.3177 84.393C18.3177 85.349 18.1474 86.1722 17.8068 86.8623C17.4662 87.5495 16.9703 88.0783 16.319 88.4488C15.6676 88.8163 14.8759 89 13.9437 89ZM12.2228 88.0141H13.872C14.6309 88.0141 15.2598 87.8677 15.7588 87.5749C16.2577 87.2821 16.6297 86.8653 16.8747 86.3245C17.1197 85.7838 17.2422 85.1399 17.2422 84.393C17.2422 83.652 17.1212 83.0142 16.8792 82.4794C16.6372 81.9416 16.2756 81.5293 15.7946 81.2425C15.3136 80.9527 14.7146 80.8078 13.9975 80.8078H12.2228V88.0141ZM27.7999 84.4109C27.7999 85.3789 27.6252 86.2155 27.2756 86.9206C26.926 87.6257 26.4465 88.1694 25.837 88.5518C25.2275 88.9343 24.5314 89.1255 23.7486 89.1255C22.9659 89.1255 22.2697 88.9343 21.6602 88.5518C21.0507 88.1694 20.5712 87.6257 20.2217 86.9206C19.8721 86.2155 19.6973 85.3789 19.6973 84.4109C19.6973 83.4429 19.8721 82.6063 20.2217 81.9013C20.5712 81.1962 21.0507 80.6524 21.6602 80.27C22.2697 79.8875 22.9659 79.6963 23.7486 79.6963C24.5314 79.6963 25.2275 79.8875 25.837 80.27C26.4465 80.6524 26.926 81.1962 27.2756 81.9013C27.6252 82.6063 27.7999 83.4429 27.7999 84.4109ZM26.7244 84.4109C26.7244 83.6162 26.5914 82.9454 26.3255 82.3987C26.0626 81.852 25.7056 81.4382 25.2544 81.1573C24.8063 80.8765 24.3043 80.7361 23.7486 80.7361C23.1929 80.7361 22.6895 80.8765 22.2384 81.1573C21.7902 81.4382 21.4332 81.852 21.1673 82.3987C20.9043 82.9454 20.7729 83.6162 20.7729 84.4109C20.7729 85.2056 20.9043 85.8764 21.1673 86.4231C21.4332 86.9699 21.7902 87.3837 22.2384 87.6645C22.6895 87.9453 23.1929 88.0858 23.7486 88.0858C24.3043 88.0858 24.8063 87.9453 25.2544 87.6645C25.7056 87.3837 26.0626 86.9699 26.3255 86.4231C26.5914 85.8764 26.7244 85.2056 26.7244 84.4109ZM29.5425 79.8218H30.8691L33.9882 87.4404H34.0958L37.2149 79.8218H38.5415V89H37.5017V82.0267H37.4121L34.5439 89H33.5401L30.6719 82.0267H30.5823V89H29.5425V79.8218ZM42.0778 87.7452L42.0061 88.2292C41.9553 88.5698 41.8776 88.9343 41.773 89.3227C41.6715 89.7111 41.5654 90.0771 41.4549 90.4206C41.3443 90.7642 41.2532 91.0376 41.1815 91.2408H40.3748C40.4136 91.0496 40.4644 90.7971 40.5272 90.4834C40.5899 90.1697 40.6527 89.8186 40.7154 89.4302C40.7811 89.0448 40.8349 88.6504 40.8767 88.2471L40.9305 87.7452H42.0778ZM50.3997 82.1164V83.0127H46.689V82.1164H50.3997ZM47.8004 89V81.1663C47.8004 80.7719 47.893 80.4433 48.0783 80.1803C48.2635 79.9174 48.504 79.7202 48.7998 79.5888C49.0956 79.4573 49.4078 79.3916 49.7364 79.3916C49.9963 79.3916 50.2085 79.4125 50.3728 79.4543C50.5371 79.4962 50.6596 79.535 50.7403 79.5709L50.4355 80.4851C50.3818 80.4672 50.3071 80.4448 50.2115 80.4179C50.1188 80.391 49.9963 80.3775 49.844 80.3775C49.4944 80.3775 49.242 80.4657 49.0866 80.6419C48.9342 80.8182 48.858 81.0766 48.858 81.4172V89H47.8004ZM54.3584 89.1434C53.6951 89.1434 53.123 88.997 52.642 88.7042C52.1639 88.4084 51.795 87.9961 51.535 87.4673C51.2781 86.9355 51.1496 86.3171 51.1496 85.612C51.1496 84.9069 51.2781 84.2854 51.535 83.7476C51.795 83.2069 52.1565 82.7856 52.6196 82.4838C53.0856 82.1791 53.6294 82.0267 54.2508 82.0267C54.6094 82.0267 54.9634 82.0865 55.313 82.206C55.6625 82.3255 55.9807 82.5197 56.2675 82.7886C56.5544 83.0545 56.7829 83.407 56.9532 83.8462C57.1235 84.2854 57.2087 84.8262 57.2087 85.4686V85.9167H51.9025V85.0025H56.1331C56.1331 84.6141 56.0554 84.2675 55.9001 83.9628C55.7477 83.658 55.5296 83.4175 55.2457 83.2412C54.9649 83.065 54.6333 82.9768 54.2508 82.9768C53.8296 82.9768 53.4651 83.0814 53.1574 83.2905C52.8526 83.4967 52.6181 83.7656 52.4538 84.0972C52.2894 84.4288 52.2073 84.7844 52.2073 85.1638V85.7733C52.2073 86.2932 52.2969 86.7338 52.4762 87.0953C52.6584 87.4539 52.9109 87.7272 53.2335 87.9155C53.5562 88.1007 53.9312 88.1933 54.3584 88.1933C54.6363 88.1933 54.8872 88.1545 55.1113 88.0768C55.3384 87.9961 55.5341 87.8766 55.6984 87.7183C55.8627 87.5569 55.9897 87.3568 56.0793 87.1178L57.1011 87.4046C56.9935 87.7511 56.8128 88.0559 56.5588 88.3188C56.3049 88.5787 55.9912 88.7819 55.6177 88.9283C55.2443 89.0717 54.8245 89.1434 54.3584 89.1434ZM61.685 82.1164V83.0127H58.1177V82.1164H61.685ZM59.1574 80.4672H60.2151V87.0281C60.2151 87.3269 60.2584 87.551 60.345 87.7004C60.4346 87.8468 60.5482 87.9453 60.6856 87.9961C60.826 88.0439 60.9739 88.0678 61.1293 88.0678C61.2458 88.0678 61.3414 88.0619 61.4161 88.0499C61.4908 88.035 61.5506 88.023 61.5954 88.0141L61.8105 88.9641C61.7388 88.991 61.6387 89.0179 61.5102 89.0448C61.3817 89.0747 61.2189 89.0896 61.0217 89.0896C60.723 89.0896 60.4302 89.0254 60.1433 88.8969C59.8595 88.7685 59.6235 88.5728 59.4353 88.3098C59.25 88.0469 59.1574 87.7153 59.1574 87.3149V80.4672ZM65.8723 89.1434C65.2269 89.1434 64.6712 88.991 64.2051 88.6863C63.7391 88.3815 63.3805 87.9618 63.1296 87.427C62.8786 86.8922 62.7531 86.2812 62.7531 85.594C62.7531 84.8949 62.8816 84.278 63.1385 83.7432C63.3985 83.2054 63.76 82.7856 64.2231 82.4838C64.6891 82.1791 65.2329 82.0267 65.8543 82.0267C66.3384 82.0267 66.7746 82.1164 67.163 82.2956C67.5514 82.4749 67.8695 82.7259 68.1175 83.0485C68.3655 83.3712 68.5194 83.7476 68.5791 84.1779H67.5215C67.4408 83.8642 67.2615 83.5863 66.9837 83.3443C66.7088 83.0993 66.3384 82.9768 65.8723 82.9768C65.46 82.9768 65.0985 83.0844 64.7877 83.2995C64.48 83.5116 64.2395 83.8119 64.0662 84.2003C63.8959 84.5857 63.8108 85.0383 63.8108 85.5582C63.8108 86.09 63.8944 86.5531 64.0617 86.9475C64.232 87.3418 64.471 87.6481 64.7788 87.8662C65.0895 88.0843 65.454 88.1933 65.8723 88.1933C66.1471 88.1933 66.3966 88.1455 66.6207 88.0499C66.8448 87.9543 67.0345 87.8169 67.1898 87.6376C67.3452 87.4584 67.4557 87.2432 67.5215 86.9923H68.5791C68.5194 87.3986 68.3715 87.7646 68.1354 88.0902C67.9024 88.4129 67.5932 88.6699 67.2078 88.8611C66.8253 89.0493 66.3802 89.1434 65.8723 89.1434ZM71.0567 84.8591V89H69.999V79.8218H71.0567V83.1919H71.1463C71.3077 82.8364 71.5497 82.5541 71.8723 82.3449C72.198 82.1328 72.6312 82.0267 73.172 82.0267C73.641 82.0267 74.0518 82.1208 74.4044 82.3091C74.7569 82.4943 75.0303 82.7796 75.2245 83.165C75.4217 83.5475 75.5203 84.0345 75.5203 84.626V89H74.4627V84.6977C74.4627 84.151 74.3207 83.7282 74.0369 83.4295C73.7561 83.1277 73.3662 82.9768 72.8672 82.9768C72.5207 82.9768 72.2099 83.05 71.9351 83.1964C71.6632 83.3428 71.4481 83.5564 71.2897 83.8373C71.1344 84.1181 71.0567 84.4587 71.0567 84.8591ZM81.272 89H80.1068L83.4769 79.8218H84.6242L87.9943 89H86.8291L84.0864 81.2738H84.0147L81.272 89ZM81.7023 85.4148H86.3989V86.4007H81.7023V85.4148ZM89.2977 89V79.8218H92.399C93.119 79.8218 93.7076 79.9518 94.1647 80.2117C94.6248 80.4687 94.9654 80.8167 95.1865 81.2559C95.4076 81.6951 95.5181 82.1851 95.5181 82.7259C95.5181 83.2666 95.4076 83.7581 95.1865 84.2003C94.9684 84.6425 94.6308 84.995 94.1737 85.2579C93.7165 85.5178 93.131 85.6478 92.4169 85.6478H90.1941V84.6619H92.381C92.874 84.6619 93.2699 84.5767 93.5686 84.4064C93.8674 84.2361 94.084 84.0061 94.2185 83.7163C94.3559 83.4235 94.4246 83.0933 94.4246 82.7259C94.4246 82.3584 94.3559 82.0297 94.2185 81.7399C94.084 81.4501 93.8659 81.223 93.5642 81.0587C93.2624 80.8914 92.8621 80.8078 92.3631 80.8078H90.4092V89H89.2977ZM98.2937 79.8218V89H97.1823V79.8218H98.2937ZM101.83 87.7452L101.758 88.2292C101.708 88.5698 101.63 88.9343 101.525 89.3227C101.424 89.7111 101.318 90.0771 101.207 90.4206C101.097 90.7642 101.005 91.0376 100.934 91.2408H100.127C100.166 91.0496 100.217 90.7971 100.279 90.4834C100.342 90.1697 100.405 89.8186 100.468 89.4302C100.533 89.0448 100.587 88.6504 100.629 88.2471L100.683 87.7452H101.83ZM106.55 89.1434C105.886 89.1434 105.314 88.997 104.833 88.7042C104.355 88.4084 103.986 87.9961 103.726 87.4673C103.469 86.9355 103.341 86.3171 103.341 85.612C103.341 84.9069 103.469 84.2854 103.726 83.7476C103.986 83.2069 104.348 82.7856 104.811 82.4838C105.277 82.1791 105.821 82.0267 106.442 82.0267C106.8 82.0267 107.155 82.0865 107.504 82.206C107.854 82.3255 108.172 82.5197 108.459 82.7886C108.745 83.0545 108.974 83.407 109.144 83.8462C109.315 84.2854 109.4 84.8262 109.4 85.4686V85.9167H104.094V85.0025H108.324C108.324 84.6141 108.247 84.2675 108.091 83.9628C107.939 83.658 107.721 83.4175 107.437 83.2412C107.156 83.065 106.824 82.9768 106.442 82.9768C106.021 82.9768 105.656 83.0814 105.348 83.2905C105.044 83.4967 104.809 83.7656 104.645 84.0972C104.481 84.4288 104.398 84.7844 104.398 85.1638V85.7733C104.398 86.2932 104.488 86.7338 104.667 87.0953C104.85 87.4539 105.102 87.7272 105.425 87.9155C105.747 88.1007 106.122 88.1933 106.55 88.1933C106.827 88.1933 107.078 88.1545 107.302 88.0768C107.529 87.9961 107.725 87.8766 107.889 87.7183C108.054 87.5569 108.181 87.3568 108.27 87.1178L109.292 87.4046C109.185 87.7511 109.004 88.0559 108.75 88.3188C108.496 88.5787 108.182 88.7819 107.809 88.9283C107.435 89.0717 107.016 89.1434 106.55 89.1434ZM116.302 82.1164L113.756 89H112.681L110.135 82.1164H111.282L113.183 87.6018H113.254L115.154 82.1164H116.302ZM120.211 89.1434C119.548 89.1434 118.976 88.997 118.495 88.7042C118.017 88.4084 117.648 87.9961 117.388 87.4673C117.131 86.9355 117.002 86.3171 117.002 85.612C117.002 84.9069 117.131 84.2854 117.388 83.7476C117.648 83.2069 118.009 82.7856 118.472 82.4838C118.938 82.1791 119.482 82.0267 120.104 82.0267C120.462 82.0267 120.816 82.0865 121.166 82.206C121.515 82.3255 121.833 82.5197 122.12 82.7886C122.407 83.0545 122.636 83.407 122.806 83.8462C122.976 84.2854 123.061 84.8262 123.061 85.4686V85.9167H117.755V85.0025H121.986C121.986 84.6141 121.908 84.2675 121.753 83.9628C121.6 83.658 121.382 83.4175 121.098 83.2412C120.818 83.065 120.486 82.9768 120.104 82.9768C119.682 82.9768 119.318 83.0814 119.01 83.2905C118.705 83.4967 118.471 83.7656 118.306 84.0972C118.142 84.4288 118.06 84.7844 118.06 85.1638V85.7733C118.06 86.2932 118.15 86.7338 118.329 87.0953C118.511 87.4539 118.764 87.7272 119.086 87.9155C119.409 88.1007 119.784 88.1933 120.211 88.1933C120.489 88.1933 120.74 88.1545 120.964 88.0768C121.191 87.9961 121.387 87.8766 121.551 87.7183C121.715 87.5569 121.842 87.3568 121.932 87.1178L122.954 87.4046C122.846 87.7511 122.666 88.0559 122.412 88.3188C122.158 88.5787 121.844 88.7819 121.47 88.9283C121.097 89.0717 120.677 89.1434 120.211 89.1434ZM125.602 84.8591V89H124.544V82.1164H125.566V83.1919H125.655C125.817 82.8424 126.062 82.5615 126.39 82.3494C126.719 82.1343 127.143 82.0267 127.663 82.0267C128.129 82.0267 128.537 82.1223 128.887 82.3136C129.236 82.5018 129.508 82.7886 129.702 83.174C129.897 83.5564 129.994 84.0404 129.994 84.626V89H128.936V84.6977C128.936 84.157 128.796 83.7357 128.515 83.4339C128.234 83.1292 127.848 82.9768 127.358 82.9768C127.021 82.9768 126.719 83.05 126.453 83.1964C126.19 83.3428 125.983 83.5564 125.83 83.8373C125.678 84.1181 125.602 84.4587 125.602 84.8591ZM134.794 82.1164V83.0127H131.226V82.1164H134.794ZM132.266 80.4672H133.324V87.0281C133.324 87.3269 133.367 87.551 133.454 87.7004C133.543 87.8468 133.657 87.9453 133.794 87.9961C133.935 88.0439 134.083 88.0678 134.238 88.0678C134.355 88.0678 134.45 88.0619 134.525 88.0499C134.6 88.035 134.659 88.023 134.704 88.0141L134.919 88.9641C134.848 88.991 134.747 89.0179 134.619 89.0448C134.49 89.0747 134.328 89.0896 134.13 89.0896C133.832 89.0896 133.539 89.0254 133.252 88.8969C132.968 88.7685 132.732 88.5728 132.544 88.3098C132.359 88.0469 132.266 87.7153 132.266 87.3149V80.4672ZM141.011 83.658L140.061 83.9269C140.001 83.7686 139.913 83.6147 139.797 83.4653C139.683 83.3129 139.528 83.1875 139.331 83.0889C139.133 82.9903 138.881 82.941 138.573 82.941C138.152 82.941 137.801 83.0381 137.52 83.2323C137.242 83.4235 137.103 83.667 137.103 83.9628C137.103 84.2257 137.199 84.4333 137.39 84.5857C137.581 84.7381 137.88 84.865 138.286 84.9666L139.308 85.2176C139.924 85.367 140.382 85.5955 140.684 85.9033C140.986 86.208 141.137 86.6009 141.137 87.0819C141.137 87.4763 141.023 87.8288 140.796 88.1395C140.572 88.4503 140.258 88.6953 139.855 88.8745C139.452 89.0538 138.983 89.1434 138.448 89.1434C137.746 89.1434 137.164 88.991 136.704 88.6863C136.244 88.3815 135.953 87.9364 135.83 87.3508L136.834 87.0998C136.93 87.4703 137.111 87.7482 137.377 87.9334C137.646 88.1186 137.997 88.2113 138.43 88.2113C138.923 88.2113 139.314 88.1067 139.604 87.8975C139.897 87.6854 140.043 87.4315 140.043 87.1357C140.043 86.8967 139.959 86.6965 139.792 86.5352C139.625 86.3708 139.368 86.2483 139.021 86.1677L137.874 85.8988C137.244 85.7494 136.781 85.5178 136.485 85.2041C136.192 84.8874 136.046 84.4916 136.046 84.0165C136.046 83.6281 136.155 83.2846 136.373 82.9858C136.594 82.687 136.894 82.4525 137.274 82.2822C137.656 82.1119 138.089 82.0267 138.573 82.0267C139.254 82.0267 139.789 82.1761 140.178 82.4749C140.569 82.7737 140.847 83.168 141.011 83.658ZM144.18 87.7452L144.108 88.2292C144.058 88.5698 143.98 88.9343 143.875 89.3227C143.774 89.7111 143.668 90.0771 143.557 90.4206C143.447 90.7642 143.355 91.0376 143.284 91.2408H142.477C142.516 91.0496 142.567 90.7971 142.629 90.4834C142.692 90.1697 142.755 89.8186 142.818 89.4302C142.883 89.0448 142.937 88.6504 142.979 88.2471L143.033 87.7452H144.18ZM10.968 106.581V97.1164H11.9898V98.2099H12.1153C12.193 98.0904 12.3005 97.938 12.438 97.7527C12.5784 97.5645 12.7786 97.3972 13.0385 97.2508C13.3014 97.1014 13.6569 97.0267 14.1051 97.0267C14.6847 97.0267 15.1956 97.1716 15.6378 97.4614C16.0799 97.7512 16.425 98.1621 16.673 98.6939C16.921 99.2257 17.045 99.8531 17.045 100.576C17.045 101.305 16.921 101.937 16.673 102.472C16.425 103.004 16.0814 103.416 15.6423 103.709C15.2031 103.999 14.6966 104.143 14.123 104.143C13.6808 104.143 13.3268 104.07 13.0609 103.924C12.795 103.774 12.5903 103.606 12.4469 103.417C12.3035 103.226 12.193 103.068 12.1153 102.942H12.0257V106.581H10.968ZM12.0077 100.558C12.0077 101.078 12.0839 101.537 12.2363 101.934C12.3887 102.328 12.6112 102.638 12.904 102.862C13.1968 103.083 13.5554 103.193 13.9796 103.193C14.4218 103.193 14.7908 103.077 15.0865 102.844C15.3853 102.608 15.6094 102.291 15.7588 101.894C15.9111 101.493 15.9873 101.048 15.9873 100.558C15.9873 100.074 15.9126 99.638 15.7633 99.2496C15.6169 98.8582 15.3943 98.549 15.0955 98.3219C14.7997 98.0918 14.4278 97.9768 13.9796 97.9768C13.5494 97.9768 13.1879 98.0859 12.8951 98.304C12.6023 98.5191 12.3812 98.8208 12.2318 99.2092C12.0824 99.5947 12.0077 100.044 12.0077 100.558ZM18.5321 104V97.1164H19.5539V98.1561H19.6256C19.7511 97.8155 19.9782 97.5391 20.3068 97.327C20.6355 97.1149 21.0059 97.0088 21.4182 97.0088C21.4959 97.0088 21.593 97.0103 21.7095 97.0133C21.8261 97.0163 21.9142 97.0208 21.9739 97.0267V98.1023C21.9381 98.0933 21.8559 98.0799 21.7275 98.062C21.602 98.0411 21.469 98.0306 21.3286 98.0306C20.994 98.0306 20.6952 98.1008 20.4323 98.2412C20.1724 98.3787 19.9662 98.5699 19.8138 98.8149C19.6645 99.0569 19.5898 99.3332 19.5898 99.6439V104H18.5321ZM25.6884 104.143C25.067 104.143 24.5217 103.996 24.0527 103.7C23.5866 103.404 23.2221 102.99 22.9592 102.458C22.6992 101.927 22.5693 101.305 22.5693 100.594C22.5693 99.877 22.6992 99.2511 22.9592 98.7163C23.2221 98.1815 23.5866 97.7662 24.0527 97.4704C24.5217 97.1746 25.067 97.0267 25.6884 97.0267C26.3099 97.0267 26.8536 97.1746 27.3197 97.4704C27.7888 97.7662 28.1533 98.1815 28.4132 98.7163C28.6761 99.2511 28.8076 99.877 28.8076 100.594C28.8076 101.305 28.6761 101.927 28.4132 102.458C28.1533 102.99 27.7888 103.404 27.3197 103.7C26.8536 103.996 26.3099 104.143 25.6884 104.143ZM25.6884 103.193C26.1605 103.193 26.5489 103.072 26.8536 102.83C27.1584 102.588 27.3839 102.27 27.5303 101.876C27.6767 101.481 27.7499 101.054 27.7499 100.594C27.7499 100.134 27.6767 99.7052 27.5303 99.3078C27.3839 98.9105 27.1584 98.5893 26.8536 98.3443C26.5489 98.0993 26.1605 97.9768 25.6884 97.9768C25.2164 97.9768 24.828 98.0993 24.5232 98.3443C24.2185 98.5893 23.9929 98.9105 23.8465 99.3078C23.7001 99.7052 23.6269 100.134 23.6269 100.594C23.6269 101.054 23.7001 101.481 23.8465 101.876C23.9929 102.27 24.2185 102.588 24.5232 102.83C24.828 103.072 25.2164 103.193 25.6884 103.193ZM30.2958 104V97.1164H31.3176V98.1919H31.4073C31.5507 97.8244 31.7822 97.5391 32.1019 97.336C32.4216 97.1298 32.8055 97.0267 33.2536 97.0267C33.7078 97.0267 34.0857 97.1298 34.3875 97.336C34.6922 97.5391 34.9297 97.8244 35.1 98.1919H35.1717C35.348 97.8364 35.6124 97.5541 35.965 97.3449C36.3175 97.1328 36.7403 97.0267 37.2333 97.0267C37.8487 97.0267 38.3521 97.2194 38.7435 97.6049C39.1349 97.9873 39.3306 98.5833 39.3306 99.393V104H38.273V99.393C38.273 98.8851 38.134 98.5221 37.8562 98.304C37.5783 98.0859 37.2512 97.9768 36.8747 97.9768C36.3907 97.9768 36.0158 98.1232 35.7499 98.416C35.484 98.7058 35.351 99.0733 35.351 99.5185V104H34.2754V99.2854C34.2754 98.894 34.1485 98.5788 33.8945 98.3398C33.6406 98.0978 33.3134 97.9768 32.9131 97.9768C32.6382 97.9768 32.3812 98.05 32.1422 98.1964C31.9062 98.3428 31.715 98.546 31.5686 98.8059C31.4252 99.0628 31.3535 99.3601 31.3535 99.6977V104H30.2958ZM41.1382 104V97.1164H42.1958V104H41.1382ZM41.676 95.9691C41.4698 95.9691 41.2921 95.8989 41.1427 95.7585C40.9963 95.618 40.9231 95.4492 40.9231 95.252C40.9231 95.0549 40.9963 94.8861 41.1427 94.7456C41.2921 94.6052 41.4698 94.535 41.676 94.535C41.8821 94.535 42.0584 94.6052 42.2048 94.7456C42.3542 94.8861 42.4289 95.0549 42.4289 95.252C42.4289 95.4492 42.3542 95.618 42.2048 95.7585C42.0584 95.8989 41.8821 95.9691 41.676 95.9691ZM48.8827 98.658L47.9326 98.9269C47.8728 98.7686 47.7847 98.6147 47.6682 98.4653C47.5547 98.3129 47.3993 98.1875 47.2021 98.0889C47.0049 97.9903 46.7525 97.941 46.4447 97.941C46.0235 97.941 45.6724 98.0381 45.3916 98.2323C45.1137 98.4235 44.9748 98.667 44.9748 98.9628C44.9748 99.2257 45.0704 99.4333 45.2616 99.5857C45.4528 99.7381 45.7516 99.865 46.1579 99.9666L47.1797 100.218C47.7952 100.367 48.2538 100.596 48.5555 100.903C48.8573 101.208 49.0082 101.601 49.0082 102.082C49.0082 102.476 48.8946 102.829 48.6676 103.14C48.4435 103.45 48.1298 103.695 47.7264 103.875C47.3231 104.054 46.854 104.143 46.3192 104.143C45.6171 104.143 45.036 103.991 44.5759 103.686C44.1158 103.382 43.8245 102.936 43.702 102.351L44.7059 102.1C44.8015 102.47 44.9823 102.748 45.2482 102.933C45.5171 103.119 45.8681 103.211 46.3013 103.211C46.7943 103.211 47.1857 103.107 47.4755 102.898C47.7683 102.685 47.9147 102.431 47.9147 102.136C47.9147 101.897 47.831 101.696 47.6637 101.535C47.4964 101.371 47.2395 101.248 46.8929 101.168L45.7456 100.899C45.1152 100.749 44.6521 100.518 44.3563 100.204C44.0635 99.8874 43.9171 99.4916 43.9171 99.0165C43.9171 98.6281 44.0262 98.2846 44.2443 97.9858C44.4654 97.687 44.7656 97.4525 45.1451 97.2822C45.5275 97.1119 45.9607 97.0267 46.4447 97.0267C47.1259 97.0267 47.6607 97.1761 48.0491 97.4749C48.4405 97.7737 48.7184 98.168 48.8827 98.658ZM53.3601 104.143C52.6969 104.143 52.1247 103.997 51.6437 103.704C51.1657 103.408 50.7967 102.996 50.5368 102.467C50.2798 101.936 50.1514 101.317 50.1514 100.612C50.1514 99.9069 50.2798 99.2854 50.5368 98.7476C50.7967 98.2069 51.1582 97.7856 51.6213 97.4838C52.0874 97.1791 52.6311 97.0267 53.2526 97.0267C53.6111 97.0267 53.9651 97.0865 54.3147 97.206C54.6643 97.3255 54.9825 97.5197 55.2693 97.7886C55.5561 98.0545 55.7847 98.407 55.955 98.8462C56.1252 99.2854 56.2104 99.8262 56.2104 100.469V100.917H50.9043V100.002H55.1348C55.1348 99.6141 55.0572 99.2675 54.9018 98.9628C54.7494 98.658 54.5313 98.4175 54.2475 98.2412C53.9666 98.065 53.635 97.9768 53.2526 97.9768C52.8313 97.9768 52.4668 98.0814 52.1591 98.2905C51.8543 98.4967 51.6198 98.7656 51.4555 99.0972C51.2912 99.4288 51.209 99.7844 51.209 100.164V100.773C51.209 101.293 51.2986 101.734 51.4779 102.095C51.6601 102.454 51.9126 102.727 52.2353 102.915C52.5579 103.101 52.9329 103.193 53.3601 103.193C53.638 103.193 53.889 103.154 54.113 103.077C54.3401 102.996 54.5358 102.877 54.7001 102.718C54.8644 102.557 54.9914 102.357 55.0811 102.118L56.1028 102.405C55.9953 102.751 55.8145 103.056 55.5606 103.319C55.3066 103.579 54.9929 103.782 54.6195 103.928C54.246 104.072 53.8262 104.143 53.3601 104.143ZM62.569 98.658L61.6189 98.9269C61.5591 98.7686 61.471 98.6147 61.3545 98.4653C61.2409 98.3129 61.0856 98.1875 60.8884 98.0889C60.6912 97.9903 60.4388 97.941 60.131 97.941C59.7098 97.941 59.3587 98.0381 59.0779 98.2323C58.8 98.4235 58.6611 98.667 58.6611 98.9628C58.6611 99.2257 58.7567 99.4333 58.9479 99.5857C59.1391 99.7381 59.4379 99.865 59.8442 99.9666L60.866 100.218C61.4815 100.367 61.9401 100.596 62.2418 100.903C62.5436 101.208 62.6945 101.601 62.6945 102.082C62.6945 102.476 62.5809 102.829 62.3539 103.14C62.1298 103.45 61.8161 103.695 61.4127 103.875C61.0094 104.054 60.5403 104.143 60.0055 104.143C59.3034 104.143 58.7223 103.991 58.2622 103.686C57.8021 103.382 57.5108 102.936 57.3883 102.351L58.3922 102.1C58.4878 102.47 58.6685 102.748 58.9345 102.933C59.2033 103.119 59.5544 103.211 59.9876 103.211C60.4806 103.211 60.872 103.107 61.1618 102.898C61.4546 102.685 61.601 102.431 61.601 102.136C61.601 101.897 61.5173 101.696 61.35 101.535C61.1827 101.371 60.9257 101.248 60.5792 101.168L59.4319 100.899C58.8015 100.749 58.3384 100.518 58.0426 100.204C57.7498 99.8874 57.6034 99.4916 57.6034 99.0165C57.6034 98.6281 57.7125 98.2846 57.9306 97.9858C58.1517 97.687 58.4519 97.4525 58.8314 97.2822C59.2138 97.1119 59.647 97.0267 60.131 97.0267C60.8122 97.0267 61.347 97.1761 61.7354 97.4749C62.1268 97.7737 62.4047 98.168 62.569 98.658ZM65.7378 102.745L65.6661 103.229C65.6153 103.57 65.5377 103.934 65.4331 104.323C65.3315 104.711 65.2254 105.077 65.1149 105.421C65.0043 105.764 64.9132 106.038 64.8415 106.241H64.0348C64.0737 106.05 64.1245 105.797 64.1872 105.483C64.25 105.17 64.3127 104.819 64.3754 104.43C64.4412 104.045 64.4949 103.65 64.5368 103.247L64.5906 102.745H65.7378ZM78.8819 99.4109C78.8819 100.379 78.7071 101.215 78.3575 101.921C78.008 102.626 77.5284 103.169 76.9189 103.552C76.3095 103.934 75.6133 104.125 74.8305 104.125C74.0478 104.125 73.3516 103.934 72.7422 103.552C72.1327 103.169 71.6531 102.626 71.3036 101.921C70.954 101.215 70.7792 100.379 70.7792 99.4109C70.7792 98.4429 70.954 97.6063 71.3036 96.9013C71.6531 96.1962 72.1327 95.6524 72.7422 95.27C73.3516 94.8875 74.0478 94.6963 74.8305 94.6963C75.6133 94.6963 76.3095 94.8875 76.9189 95.27C77.5284 95.6524 78.008 96.1962 78.3575 96.9013C78.7071 97.6063 78.8819 98.4429 78.8819 99.4109ZM77.8063 99.4109C77.8063 98.6162 77.6733 97.9454 77.4074 97.3987C77.1445 96.852 76.7875 96.4382 76.3363 96.1573C75.8882 95.8765 75.3863 95.7361 74.8305 95.7361C74.2748 95.7361 73.7714 95.8765 73.3203 96.1573C72.8721 96.4382 72.5151 96.852 72.2492 97.3987C71.9863 97.9454 71.8548 98.6162 71.8548 99.4109C71.8548 100.206 71.9863 100.876 72.2492 101.423C72.5151 101.97 72.8721 102.384 73.3203 102.665C73.7714 102.945 74.2748 103.086 74.8305 103.086C75.3863 103.086 75.8882 102.945 76.3363 102.665C76.7875 102.384 77.1445 101.97 77.4074 101.423C77.6733 100.876 77.8063 100.206 77.8063 99.4109ZM88.3685 99.4109C88.3685 100.379 88.1938 101.215 87.8442 101.921C87.4946 102.626 87.0151 103.169 86.4056 103.552C85.7961 103.934 85.1 104.125 84.3172 104.125C83.5345 104.125 82.8383 103.934 82.2288 103.552C81.6194 103.169 81.1398 102.626 80.7903 101.921C80.4407 101.215 80.2659 100.379 80.2659 99.4109C80.2659 98.4429 80.4407 97.6063 80.7903 96.9013C81.1398 96.1962 81.6194 95.6524 82.2288 95.27C82.8383 94.8875 83.5345 94.6963 84.3172 94.6963C85.1 94.6963 85.7961 94.8875 86.4056 95.27C87.0151 95.6524 87.4946 96.1962 87.8442 96.9013C88.1938 97.6063 88.3685 98.4429 88.3685 99.4109ZM87.293 99.4109C87.293 98.6162 87.16 97.9454 86.8941 97.3987C86.6312 96.852 86.2742 96.4382 85.823 96.1573C85.3749 95.8765 84.8729 95.7361 84.3172 95.7361C83.7615 95.7361 83.2581 95.8765 82.807 96.1573C82.3588 96.4382 82.0018 96.852 81.7359 97.3987C81.473 97.9454 81.3415 98.6162 81.3415 99.4109C81.3415 100.206 81.473 100.876 81.7359 101.423C82.0018 101.97 82.3588 102.384 82.807 102.665C83.2581 102.945 83.7615 103.086 84.3172 103.086C84.8729 103.086 85.3749 102.945 85.823 102.665C86.2742 102.384 86.6312 101.97 86.8941 101.423C87.16 100.876 87.293 100.206 87.293 99.4109ZM90.1111 104V94.8218H93.2124C93.9324 94.8218 94.521 94.9518 94.9781 95.2117C95.4382 95.4687 95.7788 95.8167 95.9999 96.2559C96.221 96.6951 96.3315 97.1851 96.3315 97.7259C96.3315 98.2666 96.221 98.7581 95.9999 99.2003C95.7818 99.6425 95.4442 99.995 94.987 100.258C94.5299 100.518 93.9443 100.648 93.2303 100.648H91.0074V99.6619H93.1944C93.6874 99.6619 94.0833 99.5767 94.382 99.4064C94.6808 99.2361 94.8974 99.0061 95.0319 98.7163C95.1693 98.4235 95.238 98.0933 95.238 97.7259C95.238 97.3584 95.1693 97.0297 95.0319 96.7399C94.8974 96.4501 94.6793 96.223 94.3776 96.0587C94.0758 95.8914 93.6755 95.8078 93.1765 95.8078H91.2226V104H90.1111ZM98.9245 102.745L98.8528 103.229C98.802 103.57 98.7243 103.934 98.6197 104.323C98.5182 104.711 98.4121 105.077 98.3015 105.421C98.191 105.764 98.0999 106.038 98.0282 106.241H97.2215C97.2603 106.05 97.3111 105.797 97.3739 105.483C97.4366 105.17 97.4994 104.819 97.5621 104.43C97.6278 104.045 97.6816 103.65 97.7234 103.247L97.7772 102.745H98.9245ZM106.207 104.161C105.77 104.161 105.375 104.079 105.019 103.915C104.664 103.748 104.381 103.507 104.172 103.193C103.963 102.877 103.858 102.494 103.858 102.046C103.858 101.652 103.936 101.332 104.091 101.087C104.247 100.839 104.454 100.645 104.714 100.504C104.974 100.364 105.261 100.259 105.575 100.191C105.891 100.119 106.21 100.062 106.529 100.02C106.948 99.9666 107.287 99.9263 107.547 99.8994C107.81 99.8695 108.001 99.8202 108.12 99.7515C108.243 99.6828 108.304 99.5633 108.304 99.393V99.3571C108.304 98.915 108.183 98.5714 107.941 98.3264C107.702 98.0814 107.339 97.9589 106.852 97.9589C106.347 97.9589 105.951 98.0694 105.664 98.2905C105.378 98.5116 105.176 98.7476 105.059 98.9986L104.056 98.6401C104.235 98.2218 104.474 97.8962 104.773 97.6631C105.074 97.4271 105.403 97.2628 105.759 97.1701C106.117 97.0745 106.47 97.0267 106.816 97.0267C107.037 97.0267 107.291 97.0536 107.578 97.1074C107.868 97.1582 108.147 97.2643 108.416 97.4256C108.688 97.5869 108.914 97.8304 109.093 98.1561C109.272 98.4817 109.362 98.9179 109.362 99.4647V104H108.304V103.068H108.25C108.179 103.217 108.059 103.377 107.892 103.547C107.724 103.718 107.502 103.863 107.224 103.982C106.946 104.102 106.607 104.161 106.207 104.161ZM106.368 103.211C106.786 103.211 107.139 103.129 107.426 102.965C107.715 102.8 107.934 102.588 108.08 102.328C108.229 102.068 108.304 101.795 108.304 101.508V100.54C108.259 100.594 108.161 100.643 108.008 100.688C107.859 100.73 107.686 100.767 107.488 100.8C107.294 100.83 107.104 100.857 106.919 100.881C106.737 100.902 106.589 100.92 106.476 100.935C106.201 100.97 105.944 101.029 105.705 101.109C105.469 101.187 105.277 101.305 105.131 101.463C104.988 101.619 104.916 101.831 104.916 102.1C104.916 102.467 105.052 102.745 105.324 102.933C105.599 103.119 105.947 103.211 106.368 103.211ZM111.955 97.1164L113.604 99.9308L115.253 97.1164H116.472L114.249 100.558L116.472 104H115.253L113.604 101.329L111.955 104H110.736L112.923 100.558L110.736 97.1164H111.955ZM117.855 104V97.1164H118.913V104H117.855ZM118.393 95.9691C118.187 95.9691 118.009 95.8989 117.859 95.7585C117.713 95.618 117.64 95.4492 117.64 95.252C117.64 95.0549 117.713 94.8861 117.859 94.7456C118.009 94.6052 118.187 94.535 118.393 94.535C118.599 94.535 118.775 94.6052 118.922 94.7456C119.071 94.8861 119.146 95.0549 119.146 95.252C119.146 95.4492 119.071 95.618 118.922 95.7585C118.775 95.8989 118.599 95.9691 118.393 95.9691ZM123.52 104.143C122.899 104.143 122.353 103.996 121.884 103.7C121.418 103.404 121.054 102.99 120.791 102.458C120.531 101.927 120.401 101.305 120.401 100.594C120.401 99.877 120.531 99.2511 120.791 98.7163C121.054 98.1815 121.418 97.7662 121.884 97.4704C122.353 97.1746 122.899 97.0267 123.52 97.0267C124.141 97.0267 124.685 97.1746 125.151 97.4704C125.62 97.7662 125.985 98.1815 126.245 98.7163C126.508 99.2511 126.639 99.877 126.639 100.594C126.639 101.305 126.508 101.927 126.245 102.458C125.985 102.99 125.62 103.404 125.151 103.7C124.685 103.996 124.141 104.143 123.52 104.143ZM123.52 103.193C123.992 103.193 124.38 103.072 124.685 102.83C124.99 102.588 125.216 102.27 125.362 101.876C125.508 101.481 125.582 101.054 125.582 100.594C125.582 100.134 125.508 99.7052 125.362 99.3078C125.216 98.9105 124.99 98.5893 124.685 98.3443C124.38 98.0993 123.992 97.9768 123.52 97.9768C123.048 97.9768 122.66 98.0993 122.355 98.3443C122.05 98.5893 121.825 98.9105 121.678 99.3078C121.532 99.7052 121.459 100.134 121.459 100.594C121.459 101.054 121.532 101.481 121.678 101.876C121.825 102.27 122.05 102.588 122.355 102.83C122.66 103.072 123.048 103.193 123.52 103.193ZM133.003 98.658L132.053 98.9269C131.994 98.7686 131.905 98.6147 131.789 98.4653C131.675 98.3129 131.52 98.1875 131.323 98.0889C131.126 97.9903 130.873 97.941 130.565 97.941C130.144 97.941 129.793 98.0381 129.512 98.2323C129.234 98.4235 129.095 98.667 129.095 98.9628C129.095 99.2257 129.191 99.4333 129.382 99.5857C129.573 99.7381 129.872 99.865 130.279 99.9666L131.3 100.218C131.916 100.367 132.374 100.596 132.676 100.903C132.978 101.208 133.129 101.601 133.129 102.082C133.129 102.476 133.015 102.829 132.788 103.14C132.564 103.45 132.25 103.695 131.847 103.875C131.444 104.054 130.975 104.143 130.44 104.143C129.738 104.143 129.157 103.991 128.697 103.686C128.237 103.382 127.945 102.936 127.823 102.351L128.827 102.1C128.922 102.47 129.103 102.748 129.369 102.933C129.638 103.119 129.989 103.211 130.422 103.211C130.915 103.211 131.306 103.107 131.596 102.898C131.889 102.685 132.035 102.431 132.035 102.136C132.035 101.897 131.952 101.696 131.784 101.535C131.617 101.371 131.36 101.248 131.014 101.168L129.866 100.899C129.236 100.749 128.773 100.518 128.477 100.204C128.184 99.8874 128.038 99.4916 128.038 99.0165C128.038 98.6281 128.147 98.2846 128.365 97.9858C128.586 97.687 128.886 97.4525 129.266 97.2822C129.648 97.1119 130.081 97.0267 130.565 97.0267C131.247 97.0267 131.781 97.1761 132.17 97.4749C132.561 97.7737 132.839 98.168 133.003 98.658ZM136.172 102.745L136.101 103.229C136.05 103.57 135.972 103.934 135.867 104.323C135.766 104.711 135.66 105.077 135.549 105.421C135.439 105.764 135.348 106.038 135.276 106.241H134.469C134.508 106.05 134.559 105.797 134.622 105.483C134.684 105.17 134.747 104.819 134.81 104.43C134.876 104.045 134.929 103.65 134.971 103.247L135.025 102.745H136.172ZM12.9937 119.161C12.5575 119.161 12.1616 119.079 11.8061 118.915C11.4505 118.748 11.1682 118.507 10.959 118.193C10.7499 117.877 10.6453 117.494 10.6453 117.046C10.6453 116.652 10.723 116.332 10.8784 116.087C11.0337 115.839 11.2414 115.645 11.5013 115.504C11.7612 115.364 12.0481 115.259 12.3618 115.191C12.6785 115.119 12.9967 115.062 13.3163 115.02C13.7346 114.967 14.0737 114.926 14.3336 114.899C14.5966 114.87 14.7878 114.82 14.9073 114.752C15.0298 114.683 15.091 114.563 15.091 114.393V114.357C15.091 113.915 14.97 113.571 14.728 113.326C14.489 113.081 14.126 112.959 13.639 112.959C13.1341 112.959 12.7382 113.069 12.4514 113.291C12.1646 113.512 11.9629 113.748 11.8464 113.999L10.8425 113.64C11.0218 113.222 11.2608 112.896 11.5596 112.663C11.8613 112.427 12.19 112.263 12.5455 112.17C12.904 112.075 13.2566 112.027 13.6032 112.027C13.8242 112.027 14.0782 112.054 14.365 112.107C14.6548 112.158 14.9342 112.264 15.2031 112.426C15.4749 112.587 15.7005 112.83 15.8798 113.156C16.059 113.482 16.1487 113.918 16.1487 114.465V119H15.091V118.068H15.0372C14.9655 118.217 14.846 118.377 14.6787 118.547C14.5114 118.718 14.2888 118.863 14.011 118.982C13.7331 119.102 13.394 119.161 12.9937 119.161ZM13.155 118.211C13.5733 118.211 13.9258 118.129 14.2126 117.965C14.5024 117.8 14.7205 117.588 14.8669 117.328C15.0163 117.068 15.091 116.795 15.091 116.508V115.54C15.0462 115.594 14.9476 115.643 14.7952 115.688C14.6459 115.73 14.4726 115.767 14.2754 115.8C14.0812 115.83 13.8915 115.857 13.7062 115.881C13.524 115.902 13.3761 115.92 13.2626 115.935C12.9877 115.97 12.7307 116.029 12.4917 116.109C12.2557 116.187 12.0645 116.305 11.9181 116.463C11.7747 116.619 11.703 116.831 11.703 117.1C11.703 117.467 11.8389 117.745 12.1108 117.933C12.3857 118.119 12.7337 118.211 13.155 118.211ZM22.8288 113.658L21.8787 113.927C21.819 113.769 21.7308 113.615 21.6143 113.465C21.5008 113.313 21.3454 113.187 21.1482 113.089C20.951 112.99 20.6986 112.941 20.3908 112.941C19.9696 112.941 19.6185 113.038 19.3377 113.232C19.0598 113.423 18.9209 113.667 18.9209 113.963C18.9209 114.226 19.0165 114.433 19.2077 114.586C19.3989 114.738 19.6977 114.865 20.104 114.967L21.1258 115.218C21.7413 115.367 22.1999 115.596 22.5016 115.903C22.8034 116.208 22.9543 116.601 22.9543 117.082C22.9543 117.476 22.8407 117.829 22.6137 118.14C22.3896 118.45 22.0759 118.695 21.6726 118.875C21.2692 119.054 20.8002 119.143 20.2654 119.143C19.5632 119.143 18.9821 118.991 18.522 118.686C18.0619 118.382 17.7706 117.936 17.6481 117.351L18.652 117.1C18.7476 117.47 18.9284 117.748 19.1943 117.933C19.4632 118.119 19.8142 118.211 20.2474 118.211C20.7404 118.211 21.1318 118.107 21.4216 117.898C21.7144 117.685 21.8608 117.431 21.8608 117.136C21.8608 116.897 21.7771 116.696 21.6098 116.535C21.4425 116.371 21.1856 116.248 20.839 116.168L19.6917 115.899C19.0613 115.749 18.5982 115.518 18.3024 115.204C18.0097 114.887 17.8633 114.492 17.8633 114.017C17.8633 113.628 17.9723 113.285 18.1904 112.986C18.4115 112.687 18.7118 112.452 19.0912 112.282C19.4736 112.112 19.9068 112.027 20.3908 112.027C21.072 112.027 21.6068 112.176 21.9952 112.475C22.3866 112.774 22.6645 113.168 22.8288 113.658ZM25.1013 121.581C24.9221 121.581 24.7622 121.566 24.6218 121.537C24.4814 121.51 24.3843 121.483 24.3305 121.456L24.5994 120.524C24.8563 120.589 25.0834 120.613 25.2806 120.595C25.4778 120.577 25.6526 120.489 25.8049 120.331C25.9603 120.176 26.1022 119.923 26.2307 119.574L26.4279 119.036L23.8824 112.116H25.0296L26.9298 117.602H27.0015L28.9017 112.116H30.0489L27.127 120.004C26.9955 120.359 26.8327 120.654 26.6385 120.887C26.4443 121.123 26.2187 121.298 25.9618 121.411C25.7078 121.525 25.421 121.581 25.1013 121.581ZM32.3764 114.859V119H31.3187V112.116H32.3405V113.192H32.4302C32.5915 112.842 32.8365 112.562 33.1651 112.349C33.4938 112.134 33.918 112.027 34.4379 112.027C34.904 112.027 35.3118 112.122 35.6614 112.314C36.0109 112.502 36.2828 112.789 36.477 113.174C36.6712 113.556 36.7683 114.04 36.7683 114.626V119H35.7106V114.698C35.7106 114.157 35.5702 113.736 35.2894 113.434C35.0085 113.129 34.6231 112.977 34.1331 112.977C33.7955 112.977 33.4938 113.05 33.2279 113.196C32.965 113.343 32.7573 113.556 32.6049 113.837C32.4526 114.118 32.3764 114.459 32.3764 114.859ZM41.3712 119.143C40.7259 119.143 40.1702 118.991 39.7041 118.686C39.238 118.382 38.8795 117.962 38.6285 117.427C38.3776 116.892 38.2521 116.281 38.2521 115.594C38.2521 114.895 38.3806 114.278 38.6375 113.743C38.8974 113.205 39.2589 112.786 39.722 112.484C40.1881 112.179 40.7319 112.027 41.3533 112.027C41.8373 112.027 42.2735 112.116 42.6619 112.296C43.0503 112.475 43.3685 112.726 43.6165 113.049C43.8645 113.371 44.0183 113.748 44.0781 114.178H43.0204C42.9398 113.864 42.7605 113.586 42.4827 113.344C42.2078 113.099 41.8373 112.977 41.3712 112.977C40.9589 112.977 40.5974 113.084 40.2867 113.299C39.979 113.512 39.7385 113.812 39.5652 114.2C39.3949 114.586 39.3097 115.038 39.3097 115.558C39.3097 116.09 39.3934 116.553 39.5607 116.947C39.731 117.342 39.97 117.648 40.2777 117.866C40.5885 118.084 40.953 118.193 41.3712 118.193C41.6461 118.193 41.8956 118.146 42.1196 118.05C42.3437 117.954 42.5334 117.817 42.6888 117.638C42.8442 117.458 42.9547 117.243 43.0204 116.992H44.0781C44.0183 117.399 43.8704 117.765 43.6344 118.09C43.4014 118.413 43.0921 118.67 42.7067 118.861C42.3243 119.049 41.8791 119.143 41.3712 119.143ZM47.0755 117.745L47.0038 118.229C46.953 118.57 46.8753 118.934 46.7708 119.323C46.6692 119.711 46.5631 120.077 46.4526 120.421C46.342 120.764 46.2509 121.038 46.1792 121.241H45.3725C45.4114 121.05 45.4622 120.797 45.5249 120.483C45.5876 120.17 45.6504 119.819 45.7131 119.43C45.7788 119.045 45.8326 118.65 45.8745 118.247L45.9282 117.745H47.0755ZM55.1285 119.143C54.4832 119.143 53.9275 118.991 53.4614 118.686C52.9953 118.382 52.6368 117.962 52.3858 117.427C52.1348 116.892 52.0094 116.281 52.0094 115.594C52.0094 114.895 52.1378 114.278 52.3948 113.743C52.6547 113.205 53.0162 112.786 53.4793 112.484C53.9454 112.179 54.4891 112.027 55.1106 112.027C55.5946 112.027 56.0308 112.116 56.4192 112.296C56.8076 112.475 57.1258 112.726 57.3738 113.049C57.6217 113.371 57.7756 113.748 57.8354 114.178H56.7777C56.697 113.864 56.5178 113.586 56.2399 113.344C55.9651 113.099 55.5946 112.977 55.1285 112.977C54.7162 112.977 54.3547 113.084 54.044 113.299C53.7362 113.512 53.4957 113.812 53.3225 114.2C53.1522 114.586 53.067 115.038 53.067 115.558C53.067 116.09 53.1507 116.553 53.318 116.947C53.4883 117.342 53.7273 117.648 54.035 117.866C54.3457 118.084 54.7102 118.193 55.1285 118.193C55.4034 118.193 55.6528 118.146 55.8769 118.05C56.101 117.954 56.2907 117.817 56.4461 117.638C56.6014 117.458 56.712 117.243 56.7777 116.992H57.8354C57.7756 117.399 57.6277 117.765 57.3917 118.09C57.1586 118.413 56.8494 118.67 56.464 118.861C56.0816 119.049 55.6364 119.143 55.1285 119.143ZM61.2809 119.161C60.8447 119.161 60.4489 119.079 60.0933 118.915C59.7378 118.748 59.4555 118.507 59.2463 118.193C59.0372 117.877 58.9326 117.494 58.9326 117.046C58.9326 116.652 59.0103 116.332 59.1657 116.087C59.321 115.839 59.5287 115.645 59.7886 115.504C60.0485 115.364 60.3353 115.259 60.649 115.191C60.9657 115.119 61.2839 115.062 61.6036 115.02C62.0219 114.967 62.361 114.926 62.6209 114.899C62.8838 114.87 63.075 114.82 63.1946 114.752C63.317 114.683 63.3783 114.563 63.3783 114.393V114.357C63.3783 113.915 63.2573 113.571 63.0153 113.326C62.7763 113.081 62.4133 112.959 61.9263 112.959C61.4214 112.959 61.0255 113.069 60.7387 113.291C60.4519 113.512 60.2502 113.748 60.1337 113.999L59.1298 113.64C59.3091 113.222 59.5481 112.896 59.8468 112.663C60.1486 112.427 60.4772 112.263 60.8328 112.17C61.1913 112.075 61.5439 112.027 61.8904 112.027C62.1115 112.027 62.3655 112.054 62.6523 112.107C62.9421 112.158 63.2214 112.264 63.4903 112.426C63.7622 112.587 63.9878 112.83 64.167 113.156C64.3463 113.482 64.4359 113.918 64.4359 114.465V119H63.3783V118.068H63.3245C63.2528 118.217 63.1333 118.377 62.966 118.547C62.7987 118.718 62.5761 118.863 62.2982 118.982C62.0204 119.102 61.6813 119.161 61.2809 119.161ZM61.4423 118.211C61.8605 118.211 62.2131 118.129 62.4999 117.965C62.7897 117.8 63.0078 117.588 63.1542 117.328C63.3036 117.068 63.3783 116.795 63.3783 116.508V115.54C63.3335 115.594 63.2349 115.643 63.0825 115.688C62.9331 115.73 62.7598 115.767 62.5627 115.8C62.3685 115.83 62.1787 115.857 61.9935 115.881C61.8113 115.902 61.6634 115.92 61.5498 115.935C61.275 115.97 61.018 116.029 60.779 116.109C60.543 116.187 60.3518 116.305 60.2054 116.463C60.062 116.619 59.9903 116.831 59.9903 117.1C59.9903 117.467 60.1262 117.745 60.3981 117.933C60.6729 118.119 61.021 118.211 61.4423 118.211ZM67.2978 109.822V119H66.2402V109.822H67.2978ZM70.1664 109.822V119H69.1087V109.822H70.1664ZM72.1207 119V109.822H73.1784V113.21H73.268C73.3457 113.09 73.4532 112.938 73.5907 112.753C73.7311 112.565 73.9313 112.397 74.1912 112.251C74.4541 112.101 74.8097 112.027 75.2578 112.027C75.8374 112.027 76.3483 112.172 76.7905 112.461C77.2327 112.751 77.5778 113.162 77.8257 113.694C78.0737 114.226 78.1977 114.853 78.1977 115.576C78.1977 116.305 78.0737 116.937 77.8257 117.472C77.5778 118.004 77.2342 118.416 76.795 118.709C76.3558 118.999 75.8494 119.143 75.2757 119.143C74.8336 119.143 74.4795 119.07 74.2136 118.924C73.9477 118.774 73.7431 118.606 73.5996 118.417C73.4562 118.226 73.3457 118.068 73.268 117.942H73.1425V119H72.1207ZM73.1605 115.558C73.1605 116.078 73.2366 116.537 73.389 116.934C73.5414 117.328 73.764 117.638 74.0568 117.862C74.3496 118.083 74.7081 118.193 75.1323 118.193C75.5745 118.193 75.9435 118.077 76.2393 117.844C76.538 117.608 76.7621 117.291 76.9115 116.894C77.0639 116.493 77.1401 116.048 77.1401 115.558C77.1401 115.074 77.0654 114.638 76.916 114.25C76.7696 113.858 76.547 113.549 76.2482 113.322C75.9525 113.092 75.5805 112.977 75.1323 112.977C74.7021 112.977 74.3406 113.086 74.0478 113.304C73.755 113.519 73.5339 113.821 73.3845 114.209C73.2351 114.595 73.1605 115.044 73.1605 115.558ZM81.715 119.161C81.2788 119.161 80.8829 119.079 80.5274 118.915C80.1718 118.748 79.8895 118.507 79.6804 118.193C79.4712 117.877 79.3667 117.494 79.3667 117.046C79.3667 116.652 79.4443 116.332 79.5997 116.087C79.7551 115.839 79.9627 115.645 80.2226 115.504C80.4826 115.364 80.7694 115.259 81.0831 115.191C81.3998 115.119 81.718 115.062 82.0377 115.02C82.4559 114.967 82.795 114.926 83.055 114.899C83.3179 114.87 83.5091 114.82 83.6286 114.752C83.7511 114.683 83.8123 114.563 83.8123 114.393V114.357C83.8123 113.915 83.6913 113.571 83.4493 113.326C83.2103 113.081 82.8473 112.959 82.3603 112.959C81.8554 112.959 81.4595 113.069 81.1727 113.291C80.8859 113.512 80.6842 113.748 80.5677 113.999L79.5638 113.64C79.7431 113.222 79.9821 112.896 80.2809 112.663C80.5827 112.427 80.9113 112.263 81.2668 112.17C81.6254 112.075 81.9779 112.027 82.3245 112.027C82.5456 112.027 82.7995 112.054 83.0863 112.107C83.3761 112.158 83.6555 112.264 83.9244 112.426C84.1963 112.587 84.4218 112.83 84.6011 113.156C84.7804 113.482 84.87 113.918 84.87 114.465V119H83.8123V118.068H83.7586C83.6869 118.217 83.5674 118.377 83.4 118.547C83.2327 118.718 83.0101 118.863 82.7323 118.982C82.4544 119.102 82.1153 119.161 81.715 119.161ZM81.8763 118.211C82.2946 118.211 82.6471 118.129 82.934 117.965C83.2238 117.8 83.4419 117.588 83.5883 117.328C83.7377 117.068 83.8123 116.795 83.8123 116.508V115.54C83.7675 115.594 83.6689 115.643 83.5166 115.688C83.3672 115.73 83.1939 115.767 82.9967 115.8C82.8025 115.83 82.6128 115.857 82.4276 115.881C82.2453 115.902 82.0974 115.92 81.9839 115.935C81.709 115.97 81.4521 116.029 81.2131 116.109C80.977 116.187 80.7858 116.305 80.6394 116.463C80.496 116.619 80.4243 116.831 80.4243 117.1C80.4243 117.467 80.5602 117.745 80.8321 117.933C81.107 118.119 81.4551 118.211 81.8763 118.211ZM89.4707 119.143C88.8253 119.143 88.2696 118.991 87.8036 118.686C87.3375 118.382 86.9789 117.962 86.728 117.427C86.477 116.892 86.3515 116.281 86.3515 115.594C86.3515 114.895 86.48 114.278 86.7369 113.743C86.9969 113.205 87.3584 112.786 87.8215 112.484C88.2876 112.179 88.8313 112.027 89.4528 112.027C89.9368 112.027 90.373 112.116 90.7614 112.296C91.1498 112.475 91.468 112.726 91.7159 113.049C91.9639 113.371 92.1178 113.748 92.1775 114.178H91.1199C91.0392 113.864 90.86 113.586 90.5821 113.344C90.3072 113.099 89.9368 112.977 89.4707 112.977C89.0584 112.977 88.6969 113.084 88.3861 113.299C88.0784 113.512 87.8379 113.812 87.6646 114.2C87.4943 114.586 87.4092 115.038 87.4092 115.558C87.4092 116.09 87.4928 116.553 87.6601 116.947C87.8304 117.342 88.0695 117.648 88.3772 117.866C88.6879 118.084 89.0524 118.193 89.4707 118.193C89.7455 118.193 89.995 118.146 90.2191 118.05C90.4432 117.954 90.6329 117.817 90.7883 117.638C90.9436 117.458 91.0542 117.243 91.1199 116.992H92.1775C92.1178 117.399 91.9699 117.765 91.7339 118.09C91.5008 118.413 91.1916 118.67 90.8062 118.861C90.4238 119.049 89.9786 119.143 89.4707 119.143ZM94.5834 116.49L94.5655 115.182H94.7806L97.7922 112.116H99.1008L95.892 115.361H95.8024L94.5834 116.49ZM93.5975 119V109.822H94.6551V119H93.5975ZM97.9714 119L95.2825 115.594L96.0354 114.859L99.3159 119H97.9714ZM105.212 113.658L104.262 113.927C104.202 113.769 104.114 113.615 103.997 113.465C103.884 113.313 103.728 113.187 103.531 113.089C103.334 112.99 103.082 112.941 102.774 112.941C102.353 112.941 102.001 113.038 101.721 113.232C101.443 113.423 101.304 113.667 101.304 113.963C101.304 114.226 101.399 114.433 101.591 114.586C101.782 114.738 102.081 114.865 102.487 114.967L103.509 115.218C104.124 115.367 104.583 115.596 104.885 115.903C105.186 116.208 105.337 116.601 105.337 117.082C105.337 117.476 105.224 117.829 104.997 118.14C104.773 118.45 104.459 118.695 104.056 118.875C103.652 119.054 103.183 119.143 102.648 119.143C101.946 119.143 101.365 118.991 100.905 118.686C100.445 118.382 100.154 117.936 100.031 117.351L101.035 117.1C101.131 117.47 101.311 117.748 101.577 117.933C101.846 118.119 102.197 118.211 102.63 118.211C103.123 118.211 103.515 118.107 103.805 117.898C104.097 117.685 104.244 117.431 104.244 117.136C104.244 116.897 104.16 116.696 103.993 116.535C103.825 116.371 103.569 116.248 103.222 116.168L102.075 115.899C101.444 115.749 100.981 115.518 100.685 115.204C100.393 114.887 100.246 114.492 100.246 114.017C100.246 113.628 100.355 113.285 100.573 112.986C100.794 112.687 101.095 112.452 101.474 112.282C101.857 112.112 102.29 112.027 102.774 112.027C103.455 112.027 103.99 112.176 104.378 112.475C104.77 112.774 105.047 113.168 105.212 113.658Z" fill="white"/>
</g>
<defs>
<linearGradient id="paint0_linear_72_5324" x1="225.168" y1="3.31896e-06" x2="99.3257" y2="194.323" gradientUnits="userSpaceOnUse">
<stop stop-color="#5429FF"/>
<stop offset="1" stop-color="#BBAAFF"/>
</linearGradient>
<linearGradient id="paint1_linear_72_5324" x1="100.593" y1="47.8349" x2="219.172" y2="104.973" gradientUnits="userSpaceOnUse">
<stop stop-color="#7673FF" stop-opacity="0"/>
<stop offset="0.267979" stop-color="white"/>
<stop offset="0.757591" stop-color="#FCFCFF"/>
<stop offset="1" stop-color="#7B78FF" stop-opacity="0"/>
</linearGradient>
<clipPath id="clip0_72_5324">
<rect width="230" height="130" rx="8" fill="white"/>
</clipPath>
</defs>
</svg>
